Patient4_TMGait_0pt2_03_left_13_GRF.mot
version=1
nRows=77
nColumns=19
inDegrees=no
endheader
time	F1x	F1y	F1z	M1x	M1y	M1z	F2x	F2y	F2z	M2x	M2y	M2z	EC1x	EC1y	EC1z	EC2x	EC2y	EC2z
26.75	-1.4653	3.1825	1.6002	-1.1381	-1.9559	4.063	-15.4382	705.7845	-54.6746	231.493	68.0556	785.2896	-0.0592	0.0182	-0.0073	-0.0462	0.0165	0.9585
26.7711	-0.99586	2.2985	1.1171	-0.85397	-1.3799	2.9669	-16.9769	721.2861	-54.4447	237.0496	68.4933	802.091	-0.0592	0.0182	-0.0073	-0.0462	0.0165	0.9585
26.7921	-0.60787	1.5563	0.70283	-0.61719	-0.89105	2.0682	-18.8734	745.4352	-53.9989	245.7532	68.7186	827.9743	-0.0592	0.0182	-0.0073	-0.0462	0.0165	0.9585
26.8132	-0.32004	1.0125	0.38722	-0.44464	-0.5187	1.4244	-21.0279	778.3207	-53.2467	257.6728	68.5795	862.9667	-0.0592	0.0182	-0.0073	-0.0462	0.0165	0.9585
26.8343	-0.13112	0.66618	0.17208	-0.33369	-0.2619	1.0203	-23.2266	817.7582	-52.1234	272.0674	67.9269	904.642	-0.0592	0.0182	-0.0073	-0.0462	0.0165	0.9585
26.8554	-0.028221	0.47451	0.040866	-0.26917	-0.10264	0.78834	-25.1756	859.277	-50.6293	287.3711	66.6571	948.1157	-0.0592	0.0182	-0.0073	-0.0462	0.0165	0.9585
26.8764	0.008671	0.36353	-0.031008	-0.22741	-0.016624	0.63089	-26.5857	897.028	-48.8432	301.5028	64.7544	987.0552	-0.0592	0.0182	-0.0073	-0.0462	0.0165	0.9585
26.8975	0.0018525	0.23967	-0.067732	-0.17715	0.01976	0.44391	-27.236	925.204	-46.898	312.3668	62.293	1015.2294	-0.0592	0.0182	-0.0073	-0.0462	0.0165	0.9585
26.9186	-0.032048	0.0021493	-0.087823	-0.083823	0.026432	0.11287	-26.9672	939.473	-44.9252	318.3709	59.3818	1028.0446	-0.0592	0.0182	-0.0073	-0.0462	0.0165	0.9585
26.9396	-0.077243	-0.45293	-0.10802	0.089275	0.024902	-0.4817	-25.6754	937.8913	-43.0385	318.763	56.1462	1023.5073	-0.0592	0.0182	-0.0073	-0.0462	0.0165	0.9585
26.9607	-0.11508	-1.2218	-0.14386	0.37895	0.040993	-1.4477	-23.3196	921.1006	-41.3566	313.7082	52.7458	1002.4114	-0.0592	0.0182	-0.0073	-0.0462	0.0165	0.9585
26.9818	-0.12532	-2.3757	-0.20777	0.81371	0.10066	-2.8636	-19.9346	891.9024	-40.0051	304.1454	49.3744	967.8665	-0.0592	0.0182	-0.0073	-0.0462	0.0165	0.9585
27.0029	-0.080956	-3.9348	-0.30986	1.403	0.22904	-4.7468	-15.6419	854.5186	-39.0876	291.5327	46.2233	924.4873	-0.0592	0.0182	-0.0073	-0.0462	0.0165	0.9585
27.0239	0.053322	-5.8245	-0.45289	2.12	0.44453	-7.0029	-10.6267	813.7577	-38.6606	277.5576	43.4367	877.4749	-0.0592	0.0182	-0.0073	-0.0462	0.0165	0.9585
27.045	0.31721	-7.813	-0.62962	2.8788	0.75004	-9.3576	-5.1185	774.2173	-38.7146	263.8548	41.0841	831.7575	-0.0592	0.0182	-0.0073	-0.0462	0.0165	0.9585
27.0661	0.75033	-9.4414	-0.8155	3.5076	1.1293	-11.2666	0.62549	739.6544	-39.177	251.779	39.1629	791.327	-0.0592	0.0182	-0.0073	-0.0462	0.0165	0.9585
27.0871	1.3839	-9.9507	-0.96421	3.7229	1.537	-11.8285	6.3447	712.5577	-39.9354	242.2463	37.6249	758.8039	-0.0592	0.0182	-0.0073	-0.0462	0.0165	0.9585
27.1082	2.2217	-8.2342	-1.0017	3.1089	1.8823	-9.727	11.7817	693.9202	-40.8695	235.6488	36.4141	735.2312	-0.0592	0.0182	-0.0073	-0.0462	0.0165	0.9585
27.1293	3.216	-2.8231	-0.81988	1.1125	2.0147	-3.224	16.6996	683.1967	-41.8704	231.8332	35.483	720.0569	-0.0592	0.0182	-0.0073	-0.0462	0.0165	0.9585
27.1504	4.2357	8.0444	-0.27669	-2.9317	1.7138	9.7505	20.8807	678.4148	-42.834	230.1341	34.7909	711.2785	-0.0592	0.0182	-0.0073	-0.0462	0.0165	0.9585
27.1714	5.0303	26.2076	0.79756	-9.7248	0.68415	31.3528	24.098	676.4108	-43.6407	229.4594	34.2898	705.7082	-0.0592	0.0182	-0.0073	-0.0462	0.0165	0.9585
27.1925	5.1927	53.1695	2.5788	-19.8496	-1.4322	63.3314	26.1211	673.2528	-44.1394	228.4411	33.9036	699.411	-0.0592	0.0182	-0.0073	-0.0462	0.0165	0.9585
27.2136	4.1394	89.4246	5.2087	-33.5169	-5.0136	106.2143	26.7459	664.8839	-44.1471	225.6615	33.5214	688.3473	-0.0592	0.0182	-0.0073	-0.0462	0.0165	0.9585
27.2346	1.3275	133.6806	8.7675	-50.2605	-10.3567	158.4114	25.8603	647.9262	-43.4862	219.9389	33.014	669.1634	-0.0592	0.0182	-0.0073	-0.0462	0.0165	0.9585
27.2557	-3.0613	182.5316	13.2802	-68.7963	-17.4104	215.8293	23.551	620.643	-42.0514	210.6676	32.2633	640.1222	-0.0592	0.0182	-0.0073	-0.0462	0.0165	0.9585
27.2768	-8.0307	231.7275	18.5042	-87.5147	-25.4731	273.3195	20.185	583.7059	-39.8752	198.0826	31.1981	601.8393	-0.0592	0.0182	-0.0073	-0.0462	0.0165	0.9585
27.2979	-12.6724	278.7111	23.8444	-105.4566	-33.4806	327.7473	16.3654	539.9784	-37.1331	183.1797	29.8047	557.0616	-0.0592	0.0182	-0.0073	-0.0462	0.0165	0.9585
27.3189	-16.4957	322.7986	28.7083	-122.3721	-40.5502	378.2708	12.72	493.3038	-34.0596	167.2905	28.1074	509.4873	-0.0592	0.0182	-0.0073	-0.0462	0.0165	0.9585
27.34	-19.3245	363.8689	32.7164	-138.207	-46.1806	424.7705	9.6564	447.2544	-30.8581	151.6482	26.1611	462.5748	-0.0592	0.0182	-0.0073	-0.0462	0.0165	0.9585
27.3611	-21.0687	401.7487	35.7151	-152.8685	-50.1759	467.0959	7.2882	404.4556	-27.7223	137.1518	24.0987	418.8932	-0.0592	0.0182	-0.0073	-0.0462	0.0165	0.9585
27.3821	-21.6926	435.9607	37.7486	-166.1367	-52.5917	504.7724	5.5096	366.4564	-24.8305	124.3211	22.1072	379.9834	-0.0592	0.0182	-0.0073	-0.0462	0.0165	0.9585
27.4032	-21.2581	465.7475	38.9554	-177.6884	-53.63	537.027	4.1203	333.9164	-22.3052	113.3675	20.3568	346.528	-0.0592	0.0182	-0.0073	-0.0462	0.0165	0.9585
27.4243	-19.9158	490.4421	39.4593	-187.249	-53.5093	563.1908	2.9321	306.8929	-20.2012	104.2959	18.9515	318.6162	-0.0592	0.0182	-0.0073	-0.0462	0.0165	0.9585
27.4454	-17.8601	509.7894	39.3339	-194.7159	-52.4061	583.0597	1.8341	285.0416	-18.5108	96.9748	17.913	295.9267	-0.0592	0.0182	-0.0073	-0.0462	0.0165	0.9585
27.4664	-15.3102	524.0232	38.6471	-200.181	-50.4975	596.9883	0.82468	267.7158	-17.1733	91.1713	17.1765	277.8214	-0.0592	0.0182	-0.0073	-0.0462	0.0165	0.9585
27.4875	-12.497	533.7802	37.5228	-203.8938	-48.0211	605.7856	0.011514	254.0102	-16.1014	86.5659	16.6147	263.3858	-0.0592	0.0182	-0.0073	-0.0462	0.0165	0.9585
27.5086	-9.626	539.9904	36.1312	-206.2163	-45.251	610.58	-0.44236	242.8325	-15.2122	82.7763	16.0861	251.5107	-0.0592	0.0182	-0.0073	-0.0462	0.0165	0.9585
27.5296	-6.8613	543.7472	34.6459	-207.5746	-42.4459	612.6702	-0.39095	233.063	-14.4494	79.4146	15.478	241.0567	-0.0592	0.0182	-0.0073	-0.0462	0.0165	0.9585
27.5507	-4.3287	546.1511	33.211	-208.4002	-39.813	613.3445	0.24472	223.7296	-13.7816	76.148	14.7229	231.0311	-0.0592	0.0182	-0.0073	-0.0462	0.0165	0.9585
27.5718	-2.118	548.1857	31.9161	-209.0826	-37.4821	613.7429	1.4575	214.1077	-13.1822	72.734	13.7914	220.6947	-0.0592	0.0182	-0.0073	-0.0462	0.0165	0.9585
27.5929	-0.2856	550.6482	30.7977	-209.9377	-35.5086	614.7828	3.1505	203.7441	-12.6174	69.0293	12.6866	209.5986	-0.0592	0.0182	-0.0073	-0.0462	0.0165	0.9585
27.6139	1.1348	554.1379	29.8621	-211.1984	-33.9033	617.152	5.1553	192.4069	-12.0492	64.9716	11.4359	197.5302	-0.0592	0.0182	-0.0073	-0.0462	0.0165	0.9585
27.635	2.1267	559.1178	29.1224	-213.0357	-32.6752	621.3703	7.2654	179.9602	-11.4401	60.5363	10.08	184.3789	-0.0592	0.0182	-0.0073	-0.0462	0.0165	0.9585
27.6561	2.6925	566.045	28.624	-215.6078	-31.861	627.9283	9.2751	166.2105	-10.7491	55.6812	8.6543	169.9769	-0.0592	0.0182	-0.0073	-0.0462	0.0165	0.9585
27.6771	2.8469	575.5025	28.4553	-219.115	-31.5402	637.447	10.9975	150.866	-9.9305	50.3293	7.1788	154.0513	-0.0592	0.0182	-0.0073	-0.0462	0.0165	0.9585
27.6982	2.618	588.2237	28.7178	-223.8184	-31.8069	650.721	12.2694	133.7127	-8.9389	44.4241	5.6661	136.3962	-0.0592	0.0182	-0.0073	-0.0462	0.0165	0.9585
27.7193	2.0631	604.9307	29.487	-229.9833	-32.7249	668.5339	12.9603	114.8763	-7.7546	38.0155	4.1434	117.1278	-0.0592	0.0182	-0.0073	-0.0462	0.0165	0.9585
27.7404	1.2461	626.0607	30.7861	-237.7762	-34.303	691.3561	12.9709	94.9984	-6.4086	31.3193	2.6788	96.8706	-0.0592	0.0182	-0.0073	-0.0462	0.0165	0.9585
27.7614	0.19702	651.5684	32.5792	-247.185	-36.5026	719.1278	12.244	75.151	-4.9814	24.6871	1.3771	76.6832	-0.0592	0.0182	-0.0073	-0.0462	0.0165	0.9585
27.7825	-1.0904	680.9303	34.7874	-258.0142	-39.2472	751.248	10.8074	56.4948	-3.5812	18.494	0.34355	57.7218	-0.0592	0.0182	-0.0073	-0.0462	0.0165	0.9585
27.8036	-2.6337	713.3316	37.3084	-269.9591	-42.428	786.7641	8.8161	39.9831	-2.3211	13.0449	-0.35554	40.9451	-0.0592	0.0182	-0.0073	-0.0462	0.0165	0.9585
27.8246	-4.4066	747.8397	40.029	-282.6766	-45.8978	824.5421	6.5424	26.2467	-1.2993	8.5375	-0.70475	26.9919	-0.0592	0.0182	-0.0073	-0.0462	0.0165	0.9585
27.8457	-6.2947	783.3654	42.8303	-295.7727	-49.4666	863.2244	4.3073	15.5724	-0.57242	5.0559	-0.75126	16.1548	-0.0592	0.0182	-0.0073	-0.0462	0.0165	0.9585
27.8668	-8.0975	818.4196	45.6031	-308.7056	-52.9262	901.0113	2.3832	7.9097	-0.13928	2.5728	-0.58898	8.3827	-0.0592	0.0182	-0.0073	-0.0462	0.0165	0.9585
27.8879	-9.5656	850.8955	48.2644	-320.694	-56.084	935.46	0.90093	2.9297	0.064065	0.97173	-0.32787	3.3383	-0.0592	0.0182	-0.0073	-0.0462	0.0165	0.9585
27.9089	-10.4503	878.1732	50.7468	-330.7564	-58.7719	963.6314	-0.13989	0.104	0.11773	0.073929	-0.052359	0.48009	-0.0592	0.0182	-0.0073	-0.0462	0.0165	0.9585
27.93	-10.5497	897.5927	52.9504	-337.896	-60.8115	982.6152	-0.80249	-1.16	0.083307	-0.31768	0.1936	-0.79879	-0.0592	0.0182	-0.0073	-0.0462	0.0165	0.9585
27.9511	-9.7536	907.1169	54.7057	-341.3556	-61.9828	990.2345	-1.1742	-1.4201	0.0050427	-0.38635	0.393	-1.0671	-0.0592	0.0182	-0.0073	-0.0462	0.0165	0.9585
27.9721	-8.0509	905.865	55.8216	-340.8187	-62.0759	985.6038	-1.3434	-1.1466	-0.085644	-0.28722	0.54169	-0.80527	-0.0592	0.0182	-0.0073	-0.0462	0.0165	0.9585
27.9932	-5.5241	894.3605	56.1586	-336.4998	-60.9743	969.3801	-1.3851	-0.70644	-0.16799	-0.1422	0.64182	-0.39302	-0.0592	0.0182	-0.0073	-0.0462	0.0165	0.9585
28.0143	-2.3033	874.4629	55.6801	-329.1128	-58.694	943.6638	-1.3533	-0.37124	-0.2282	-0.041823	0.69517	-0.11519	-0.0592	0.0182	-0.0073	-0.0462	0.0165	0.9585
28.0354	1.4784	848.9937	54.4587	-319.7255	-55.3757	911.584	-1.2806	-0.33879	-0.25813	-0.051634	0.70416	-0.18432	-0.0592	0.0182	-0.0073	-0.0462	0.0165	0.9585
28.0564	5.708	821.1534	52.6626	-309.5361	-51.2568	876.6604	-1.1845	-0.7389	-0.25314	-0.21521	0.66802	-0.74376	-0.0592	0.0182	-0.0073	-0.0462	0.0165	0.9585
28.0775	10.3122	793.9596	50.5224	-299.6626	-46.6261	842.189	-1.0679	-1.6313	-0.2113	-0.55194	0.58105	-1.8606	-0.0592	0.0182	-0.0073	-0.0462	0.0165	0.9585
28.0986	15.2409	769.8325	48.2865	-290.9919	-41.7775	810.8135	-0.92084	-2.9941	-0.13353	-1.0525	0.43703	-3.5099	-0.0592	0.0182	-0.0073	-0.0462	0.0165	0.9585
28.1196	20.4209	750.3588	46.1795	-284.0934	-36.9845	784.3034	-0.72471	-4.689	-0.021422	-1.6677	0.23199	-5.5284	-0.0592	0.0182	-0.0073	-0.0462	0.0165	0.9585
28.1407	25.738	736.2533	44.3838	-279.2091	-32.4842	763.5234	-0.45651	-6.4139	0.11894	-2.2899	-0.031438	-7.5602	-0.0592	0.0182	-0.0073	-0.0462	0.0165	0.9585
28.1618	31.0499	727.4226	43.0346	-276.2781	-28.4688	748.4821	-0.099164	-7.6382	0.27296	-2.7288	-0.33631	-8.9852	-0.0592	0.0182	-0.0073	-0.0462	0.0165	0.9585
28.1829	36.1953	723.0438	42.2299	-274.9663	-25.0941	738.4167	0.34861	-7.5425	0.41127	-2.6908	-0.6425	-8.8499	-0.0592	0.0182	-0.0073	-0.0462	0.0165	0.9585
28.2039	40.9841	721.6348	42.0279	-274.6916	-22.4878	731.8868	0.86142	-4.9738	0.48465	-1.7644	-0.87554	-5.8171	-0.0592	0.0182	-0.0073	-0.0462	0.0165	0.9585
28.225	45.1773	721.1345	42.4326	-274.6526	-20.7494	726.8716	1.3733	1.5444	0.41667	0.57679	-0.91221	1.8246	-0.0592	0.0182	-0.0073	-0.0462	0.0165	0.9585
28.2461	48.5153	719.0695	43.374	-273.8944	-19.9196	720.9393	1.7577	13.7047	0.096421	4.937	-0.56906	16.0383	-0.0592	0.0182	-0.0073	-0.0462	0.0165	0.9585
28.2671	50.7487	712.8076	44.6798	-271.4088	-19.9409	711.5105	1.8075	33.166	-0.61918	11.9085	0.40016	38.7507	-0.0592	0.0182	-0.0073	-0.0462	0.0165	0.9585
28.2882	51.6488	699.9353	46.0718	-266.2824	-20.6469	696.2392	1.1927	61.1209	-1.8911	21.9179	2.3004	71.3558	-0.0592	0.0182	-0.0073	-0.0462	0.0165	0.9585
28.3093	51.0168	678.6485	47.212	-257.8478	-21.7992	673.3927	-0.57236	97.7239	-3.8612	35.019	5.4571	114.0354	-0.0592	0.0182	-0.0073	-0.0462	0.0165	0.9585
28.3304	48.7502	648.1465	47.765	-245.8306	-23.1232	642.206	-3.7176	141.5995	-6.6288	50.7101	10.0432	165.1615	-0.0592	0.0182	-0.0073	-0.0462	0.0165	0.9585
28.3514	44.9583	608.9897	47.4725	-230.4778	-24.3381	603.1982	-7.9637	190.0393	-10.2606	68.0013	15.9971	221.4998	-0.0592	0.0182	-0.0073	-0.0462	0.0165	0.9585
